<svg width="24" height="24" viewBox="0 0 24 24" fill="none" xmlns="http://www.w3.org/2000/svg">
<g id="discord">
<path id="Subtract" fill-rule="evenodd" clip-rule="evenodd" d="M1.99327 3.97108C1.5 4.93919 1.5 6.20651 1.5 8.74114V15.3789C1.5 17.9135 1.5 19.1808 1.99327 20.1489C2.42717 21.0005 3.11952 21.6928 3.97108 22.1267C4.93919 22.62 6.20651 22.62 8.74114 22.62H15.3789C17.9135 22.62 19.1808 22.62 20.1489 22.1267C21.0005 21.6928 21.6928 21.0005 22.1267 20.1489C22.62 19.1808 22.62 17.9135 22.62 15.3789V8.74114C22.62 6.20651 22.62 4.93919 22.1267 3.97108C21.6928 3.11952 21.0005 2.42717 20.1489 1.99327C19.1808 1.5 17.9135 1.5 15.3789 1.5H8.74114C6.20651 1.5 4.93919 1.5 3.97108 1.99327C3.11952 2.42717 2.42717 3.11952 1.99327 3.97108ZM14.3437 6.02575C15.7899 6.10621 17.1601 6.58895 18.3019 7.55444C19.596 10.1291 20.2811 13.0255 20.3572 16.0024C19.2154 17.2898 17.6168 18.0943 15.9422 18.0943C15.9422 18.0943 15.4093 17.4507 15.0287 16.8875C16.0183 16.6461 16.9318 16.0829 17.5407 15.1979C17.0079 15.5197 16.475 15.8415 15.9422 16.0829C15.2571 16.4047 14.572 16.5656 13.8869 16.7266C13.278 16.807 12.669 16.8875 12.06 16.8875C11.4511 16.8875 10.8421 16.807 10.2331 16.7266C9.54806 16.5656 8.86298 16.4047 8.17789 16.0829C7.64505 15.8415 7.1122 15.5197 6.57936 15.1979C7.18832 16.0829 8.10177 16.6461 9.09134 16.8875C8.71074 17.4507 8.17789 18.0943 8.17789 18.0943C6.50324 18.0943 4.90471 17.2898 3.7629 16.0024C3.83902 13.0255 4.5241 10.1291 5.81815 7.55444C6.95996 6.58895 8.33013 6.10621 9.77642 6.02575L10.0048 6.26712C8.71074 6.58895 7.56893 7.23261 6.50324 8.11764C7.79729 7.39352 9.24358 6.91078 10.766 6.74987C11.2227 6.66941 11.6033 6.66941 12.06 6.66941C12.5168 6.66941 12.8974 6.66941 13.3541 6.74987C14.8765 6.91078 16.3228 7.39352 17.6168 8.11764C16.5512 7.23261 15.4093 6.58895 14.1153 6.26712L14.3437 6.02575ZM8.10177 12.9451C8.10177 13.8301 8.78686 14.5542 9.54806 14.5542C10.3093 14.5542 10.9944 13.8301 10.9944 12.9451C10.9944 12.06 10.3093 11.3359 9.54806 11.3359C8.78686 11.3359 8.10177 12.06 8.10177 12.9451ZM13.1257 12.9451C13.1257 13.8301 13.8108 14.5542 14.572 14.5542C15.3332 14.5542 16.0183 13.8301 16.0183 12.9451C16.0183 12.06 15.3332 11.3359 14.572 11.3359C13.8108 11.3359 13.1257 12.06 13.1257 12.9451Z" fill="#D4D4D8"/>
</g>
</svg>
